# xmcd
#
# Track frame offsets: 
#        150
#        16950
#        34109
#        53771
#        67621
#        85114
#        96493
#        113952
#        128423
#        141773
#        163973
#        178990
#        195639
#        209620
#        225975
#
# Disc length: 3171 seconds
#
# Revision: 0
# Processed by: cddbd v1.5.2PL0 Copyright (c) Steve Scherf et al.
# Submitted via: ExactAudioCopy v1.3
#
DISCID=c90c610f
DTITLE=Patrick Feeney - The Holy Album
DYEAR=2018
DGENRE=Easy Listening
TTITLE0=Far Side Banks Of Jordan
TTITLE1=Wind In The Willows
TTITLE2=Go Rest High
TTITLE3=I'll Fly Away
TTITLE4=How Great Thou Art
TTITLE5=Take Me To The River
TTITLE6=Song For Bernadette
TTITLE7=Hallelujah
TTITLE8=Bury Me Beneath The Willow
TTITLE9=The Holy City
TTITLE10=Colleen Malone
TTITLE11=Over And Over
TTITLE12=Bring Him Home
TTITLE13=I Believe
TTITLE14=Sweet By And By
EXTD=
EXTT0=
EXTT1=
EXTT2=
EXTT3=
EXTT4=
EXTT5=
EXTT6=
EXTT7=
EXTT8=
EXTT9=
EXTT10=
EXTT11=
EXTT12=
EXTT13=
EXTT14=
PLAYORDER=
